<?xml version="1.0" encoding="utf-8"?>
<!-- Generator: Adobe Illustrator 27.3.1, SVG Export Plug-In . SVG Version: 6.00 Build 0)  -->
<svg version="1.1" id="Layer_1" xmlns="http://www.w3.org/2000/svg" xmlns:xlink="http://www.w3.org/1999/xlink" x="0px" y="0px"
	 viewBox="0 0 1000 1000" style="enable-background:new 0 0 1000 1000;" xml:space="preserve">
<style type="text/css">
	.st0{fill:#303171;}
	.st1{fill:#FFFFFF;}
	.st2{fill:#EC1C24;stroke:#ED1C24;stroke-miterlimit:10;}
	.st3{fill:#ED1C24;}
	.st4{fill:#303171;stroke:#303171;stroke-miterlimit:10;}
</style>
<g>
	<g>
		<path class="st0" d="M327.95,550.4c0-4.24,0-7.31,0-10.38c0-61.06-0.62-122.13,0.14-183.18c1.17-93.37,63.45-175.73,155.61-195.37
			c71.02-15.13,133.23,4.65,184.25,56.98c31.35,32.16,49.15,71.23,53.12,115.59c5.05,56.47-10.59,107.09-48.68,150
			c-30.13,33.95-67.67,55.02-112.13,63.32c-13.17,2.46-26.8,3.38-40.23,3.46c-60.8,0.35-121.6,0.16-182.4,0.13
			C334.86,550.95,332.08,550.65,327.95,550.4z"/>
		<path class="st1" d="M397.58,481.4c2.41,0.16,3.95,0.36,5.48,0.36c42.86,0.02,85.71,0.09,128.57-0.07
			c5.66-0.02,11.38-0.87,16.96-1.94c71.21-13.67,116.68-81.93,102.03-152.25c-12.18-58.45-61.61-100.37-121.92-102.08
			c-41.24-1.17-75.16,15.57-101.32,47.07c-19.23,23.16-29.77,50.28-30.08,80.61c-0.41,40.25-0.11,80.51-0.09,120.77
			C397.2,476.16,397.42,478.45,397.58,481.4z"/>
	</g>
	<g>
		<path class="st2" d="M611.51,298.31c0.15,2.5-0.66,4.74-1.98,6.81c-3.53,5.52-7.1,11.01-10.66,16.51
			c-3.6,5.58-7.21,11.15-10.81,16.73c-4.39,6.8-8.79,13.6-13.18,20.39c-5.05,7.82-10.1,15.64-15.15,23.45
			c-5.89,9.11-11.78,18.23-17.67,27.34c-6.24,9.65-12.49,19.29-18.73,28.94c-2.14,3.32-4.28,6.64-6.41,9.96
			c-1.75,2.72-3.99,4.83-7.14,5.81c-4.19,1.3-8.07,0.62-11.55-2.06c-4.76-3.65-6.42-10.75-2.84-16.41c2.24-3.54,4.53-7.05,6.8-10.57
			c6.63-10.26,13.26-20.53,19.9-30.79c7.99-12.36,15.98-24.71,23.97-37.06c8.08-12.5,16.17-25.01,24.25-37.51
			c5.95-9.21,11.9-18.41,17.85-27.62c2.06-3.19,4.78-5.44,8.6-6.2c6.09-1.22,12.32,2.39,14.2,8.31c0.4,1.26,0.51,2.62,0.75,3.93
			C611.64,298.29,611.58,298.3,611.51,298.31z"/>
		<path class="st2" d="M541.44,324.45c-0.01,3.05-1.29,5.61-2.9,8.06c-5.69,8.64-11.37,17.28-17.06,25.93
			c-6.38,9.69-12.77,19.38-19.15,29.07c-4.89,7.42-9.78,14.85-14.66,22.28c-2.69,4.09-5.37,8.19-8.06,12.28
			c-2,3.05-4.62,5.24-8.26,6.06c-6.98,1.57-13.99-3.28-14.99-10.37c-0.4-2.81,0-5.48,1.49-7.9c1.81-2.95,3.73-5.83,5.63-8.73
			c6.83-10.4,13.67-20.79,20.51-31.18c7.97-12.11,15.93-24.21,23.9-36.32c3.52-5.34,7.01-10.7,10.58-16.01
			c2.11-3.14,5.09-5.05,8.87-5.55c6.23-0.83,12.23,3.32,13.67,9.46C541.23,322.47,541.3,323.47,541.44,324.45z"/>
		<path class="st2" d="M438.03,400.61c-4.42,0.02-9.48-3.87-10.85-9.85c-0.82-3.58,0.07-6.92,2.08-9.95
			c4.03-6.07,8.07-12.12,12.1-18.18c9.09-13.69,18.18-27.39,27.27-41.07c1.98-2.98,3.93-5.97,5.99-8.89
			c2.01-2.84,4.75-4.63,8.23-5.16c6.22-0.95,12.13,2.79,13.9,8.84c1.1,3.79,0.42,7.33-1.74,10.61c-3.7,5.59-7.41,11.18-11.12,16.77
			c-4.19,6.32-8.39,12.65-12.59,18.97c-6.07,9.13-12.14,18.26-18.22,27.38c-1.43,2.14-2.8,4.35-4.46,6.32
			C446.28,399.2,443.14,400.6,438.03,400.61z"/>
		<path class="st2" d="M543.8,311.24c-6.38,0-11.82-5.07-12.37-11.41c-0.21-2.42,0.2-4.68,1.4-6.75c1.82-3.15,3.72-6.25,5.63-9.35
			c1.14-1.86,2.25-3.76,3.56-5.49c3.43-4.52,9.59-5.99,14.75-3.63c3.97,1.82,6.38,4.91,7.22,9.18c0.65,3.3-0.18,6.34-1.92,9.17
			c-2.52,4.1-5.01,8.2-7.55,12.28c-1.54,2.48-3.67,4.3-6.44,5.24c-1.36,0.46-2.82,0.64-4.23,0.94
			C543.83,311.36,543.82,311.3,543.8,311.24z"/>
	</g>
</g>
<g>
	<path class="st3" d="M301.86,730.63c4.06,2.13,6.89,5.48,8.49,10.06c1.6,4.58,2.41,10.93,2.41,19.05c0,8.44-0.79,15.12-2.36,20.03
		c-1.57,4.91-4.4,8.54-8.49,10.9c-4.09,2.36-9.93,3.53-17.53,3.53H261.9v-66.76h22.48C291.98,727.44,297.8,728.5,301.86,730.63z
		 M293.86,779.87c2.06-1.7,3.4-4.14,4.03-7.31c0.62-3.17,0.93-7.71,0.93-13.6c0-5.24-0.33-9.2-0.98-11.88
		c-0.66-2.68-2-4.66-4.03-5.94c-2.03-1.28-5.17-1.91-9.43-1.91h-8.93v43.2h8.93C288.64,782.42,291.8,781.57,293.86,779.87z"/>
	<path class="st3" d="M342.77,789.59c-3.4-3.86-5.11-10.11-5.11-18.75c0-9.03,1.78-15.77,5.35-20.23c3.57-4.45,9.11-6.68,16.64-6.68
		c6.94,0,12.19,1.85,15.76,5.55c3.57,3.7,5.35,9.25,5.35,16.64l-0.98,9.13h-28.87c0.13,2.29,0.54,4.04,1.23,5.25
		c0.69,1.21,1.8,2.06,3.34,2.55c1.54,0.49,3.68,0.74,6.43,0.74c2.16,0,4.75-0.06,7.76-0.2c3.01-0.13,5.2-0.26,6.58-0.39l2.75-0.29
		l0.2,9.72c-7.4,1.83-14.01,2.75-19.83,2.75C351.7,795.38,346.17,793.45,342.77,789.59z M367.8,765.24c0-3.93-0.61-6.66-1.82-8.2
		c-1.21-1.54-3.36-2.31-6.43-2.31c-3.14,0-5.37,0.8-6.68,2.41c-1.31,1.61-2,4.31-2.06,8.1H367.8z"/>
	<path class="st3" d="M407.53,725.48h13.16v68.73h-13.16V725.48z"/>
	<path class="st3" d="M450.2,725.57h13.16v13.25H450.2V725.57z M450.2,745.11h13.16v49.09H450.2V745.11z"/>
	<path class="st3" d="M487.67,745.11h13.75l7.85,37.9h2.75l8.25-37.9h13.35l-11.78,49.09h-22.39L487.67,745.11z"/>
	<path class="st3" d="M559.9,789.59c-3.4-3.86-5.11-10.11-5.11-18.75c0-9.03,1.78-15.77,5.35-20.23c3.57-4.45,9.11-6.68,16.64-6.68
		c6.94,0,12.19,1.85,15.76,5.55c3.57,3.7,5.35,9.25,5.35,16.64l-0.98,9.13h-28.87c0.13,2.29,0.54,4.04,1.23,5.25
		c0.69,1.21,1.8,2.06,3.34,2.55c1.54,0.49,3.68,0.74,6.43,0.74c2.16,0,4.75-0.06,7.76-0.2c3.01-0.13,5.2-0.26,6.58-0.39l2.75-0.29
		l0.2,9.72c-7.4,1.83-14.01,2.75-19.83,2.75C568.83,795.38,563.3,793.45,559.9,789.59z M584.94,765.24c0-3.93-0.61-6.66-1.82-8.2
		c-1.21-1.54-3.36-2.31-6.43-2.31c-3.14,0-5.37,0.8-6.68,2.41c-1.31,1.61-2,4.31-2.06,8.1H584.94z"/>
	<path class="st3" d="M633.45,791.75c-3.96-2.42-6.79-6.15-8.49-11.19c-1.7-5.04-2.55-11.72-2.55-20.03
		c0-8.18,0.88-14.78,2.65-19.78c1.77-5.01,4.6-8.67,8.49-11c3.89-2.32,9.11-3.49,15.66-3.49c6.09,0,12.67,0.69,19.73,2.06l3.53,0.69
		l-0.39,10.51c-7.59-0.85-14.01-1.28-19.24-1.28c-5.17,0-8.93,0.87-11.29,2.6c-2.36,1.73-3.81,4.09-4.37,7.07
		c-0.56,2.98-0.83,7.41-0.83,13.3c0,5.83,0.39,10.31,1.18,13.45c0.79,3.14,2.21,5.42,4.27,6.82c2.06,1.41,5.12,2.11,9.18,2.11
		c3.86,0,6.58-0.13,8.15-0.39v-12.96h-6.09v-11.78h19.44v34.66c-9.56,1.5-17.15,2.26-22.78,2.26
		C642.83,795.38,637.41,794.17,633.45,791.75z"/>
	<path class="st3" d="M704.01,788.66c-3.83-4.48-5.74-10.85-5.74-19.1c0-8.18,1.91-14.5,5.74-18.95c3.83-4.45,9.44-6.68,16.84-6.68
		c7.4,0,13.01,2.23,16.84,6.68c3.83,4.45,5.74,10.77,5.74,18.95c0,8.25-1.91,14.61-5.74,19.1c-3.83,4.48-9.44,6.73-16.84,6.73
		C713.45,795.38,707.84,793.14,704.01,788.66z M727.82,780.75c1.5-2.29,2.26-6.02,2.26-11.19c0-5.17-0.75-8.87-2.26-11.09
		c-1.51-2.22-3.83-3.34-6.97-3.34c-3.14,0-5.47,1.11-6.97,3.34c-1.51,2.23-2.26,5.92-2.26,11.09c0,5.17,0.75,8.9,2.26,11.19
		c1.5,2.29,3.83,3.44,6.97,3.44C723.99,784.19,726.31,783.04,727.82,780.75z"/>
</g>
<g>
	<path class="st4" d="M279.18,693.23c-4,0-7.56-0.79-10.7-2.36c-3.14-1.58-5.61-3.74-7.41-6.51c-1.8-2.76-2.69-5.91-2.69-9.45
		c0-0.97,0.07-2.24,0.2-3.82c0.13-1.58,0.31-3.33,0.54-5.27c0.22-1.94,0.48-3.94,0.77-6c0.29-2.06,0.57-4.06,0.84-6l10.17,1.45
		c-0.45,3.25-0.84,6.19-1.18,8.83c-0.34,2.64-0.6,4.87-0.77,6.69c-0.18,1.82-0.27,3.16-0.27,4.04c0,1.79,0.4,3.36,1.21,4.69
		c0.81,1.33,2,2.36,3.57,3.09c1.57,0.73,3.48,1.09,5.72,1.09c2.38,0,4.26-0.38,5.66-1.13c1.39-0.75,2.38-1.74,2.96-2.98
		c0.58-1.24,0.87-2.63,0.87-4.18v-51.33h10.3v51.33c0,3.59-0.85,6.71-2.56,9.38c-1.71,2.67-4.05,4.74-7.04,6.22
		C286.39,692.49,282.99,693.23,279.18,693.23z M298.97,675.2v-9.53h7.07v9.53H298.97z M306.04,675.2v-9.53
		c0.22,0,0.43,0.11,0.61,0.33c0.18,0.22,0.31,0.53,0.4,0.95c0.09,0.41,0.17,0.91,0.24,1.49c0.07,0.58,0.1,1.24,0.1,1.96
		c0,0.73-0.03,1.39-0.1,2c-0.07,0.61-0.15,1.12-0.24,1.53c-0.09,0.41-0.23,0.73-0.4,0.95C306.47,675.09,306.27,675.2,306.04,675.2z"
		/>
	<path class="st4" d="M306.04,675.2c-0.27,0-0.48-0.11-0.64-0.33c-0.16-0.22-0.28-0.53-0.37-0.95c-0.09-0.41-0.17-0.92-0.24-1.53
		c-0.07-0.61-0.1-1.27-0.1-2c0-0.97,0.05-1.81,0.13-2.51c0.09-0.7,0.24-1.25,0.44-1.64c0.2-0.39,0.46-0.58,0.77-0.58V675.2z
		 M306.04,675.2v-9.53h18.11l-6.26,5.6v-32.65h10.3v36.57H306.04z M308.4,691.49v-8.87h9.83v8.87H308.4z M321.66,691.49v-8.87h9.83
		v8.87H321.66z M328.19,675.2v-9.53h8.75v9.53H328.19z M336.94,675.2v-9.53c0.27,0,0.48,0.11,0.64,0.33
		c0.16,0.22,0.29,0.53,0.4,0.95c0.11,0.41,0.19,0.91,0.24,1.49c0.04,0.58,0.07,1.24,0.07,1.96c0,0.73-0.02,1.39-0.07,2
		c-0.05,0.61-0.12,1.12-0.24,1.53c-0.11,0.41-0.25,0.73-0.4,0.95C337.43,675.09,337.21,675.2,336.94,675.2z"/>
	<path class="st4" d="M336.94,675.2c-0.22,0-0.43-0.11-0.61-0.33c-0.18-0.22-0.31-0.53-0.4-0.95c-0.09-0.41-0.17-0.92-0.24-1.53
		c-0.07-0.61-0.1-1.27-0.1-2c0-0.97,0.05-1.81,0.13-2.51c0.09-0.7,0.24-1.25,0.44-1.64c0.2-0.39,0.46-0.58,0.77-0.58V675.2z
		 M336.94,675.2v-9.53h51.3l-8.55,7.93v-14.69c0-2.62-0.33-4.7-0.98-6.25c-0.65-1.55-1.56-2.69-2.73-3.42
		c-1.17-0.73-2.56-1.09-4.17-1.09c-1.93,0-3.76,0.44-5.49,1.31c-1.73,0.87-3.34,1.99-4.85,3.34c-1.5,1.36-2.9,2.81-4.17,4.36
		c-1.28,1.55-2.4,3.03-3.37,4.44c-0.97,1.41-1.78,2.52-2.46,3.34l-2.09-7.56c1.93-2.62,3.64-4.93,5.12-6.94
		c1.48-2.01,2.87-3.76,4.17-5.24c1.3-1.48,2.64-2.7,4.01-3.67c1.37-0.97,2.88-1.7,4.54-2.18c1.66-0.48,3.61-0.73,5.86-0.73
		c2.92,0,5.44,0.53,7.57,1.6c2.13,1.07,3.88,2.54,5.25,4.44c1.37,1.89,2.39,4.06,3.06,6.51c0.67,2.45,1.01,5.03,1.01,7.74v16.29
		H336.94z M345.09,665.68v-27.05h10.3v27.05H345.09z"/>
	<path class="st4" d="M411.2,693.96c-1.71,0-3.48-0.13-5.32-0.4c-1.84-0.27-3.77-0.64-5.79-1.13l1.55-8.87
		c2.2,0.29,4.07,0.51,5.62,0.65c1.55,0.15,2.86,0.22,3.94,0.22c3.05,0,5.25-0.58,6.6-1.75c1.35-1.16,2.02-2.93,2.02-5.31v-30.83
		l2.09,1.6h-7.47c-1.53,0-2.81,0.21-3.84,0.62c-1.03,0.41-1.81,1.26-2.32,2.54c-0.52,1.28-0.77,3.26-0.77,5.93
		c0,2.47,0.22,4.31,0.67,5.53c0.45,1.21,1.19,2,2.22,2.36c1.03,0.36,2.38,0.55,4.04,0.55h5.39v9.53h-5.39
		c-3.77,0-6.95-0.65-9.53-1.96c-2.58-1.31-4.51-3.3-5.79-5.96c-1.28-2.66-1.92-6.01-1.92-10.03c0-4.07,0.64-7.49,1.92-10.25
		c1.28-2.76,3.21-4.85,5.79-6.25c2.58-1.41,5.76-2.11,9.53-2.11h15.69v38.76c0,3.39-0.79,6.34-2.36,8.83
		c-1.57,2.5-3.77,4.41-6.6,5.74C418.34,693.29,415.02,693.96,411.2,693.96z M430.12,675.2v-9.53h7v9.53H430.12z M437.12,675.2v-9.53
		c0.27,0,0.48,0.11,0.64,0.33c0.16,0.22,0.29,0.53,0.4,0.95c0.11,0.41,0.19,0.91,0.24,1.49c0.04,0.58,0.07,1.24,0.07,1.96
		c0,0.73-0.02,1.39-0.07,2c-0.05,0.61-0.12,1.12-0.24,1.53c-0.11,0.41-0.25,0.73-0.4,0.95C437.61,675.09,437.39,675.2,437.12,675.2z
		"/>
	<path class="st4" d="M437.12,675.2c-0.27,0-0.48-0.11-0.64-0.33c-0.16-0.22-0.28-0.53-0.37-0.95c-0.09-0.41-0.17-0.92-0.24-1.53
		c-0.07-0.61-0.1-1.27-0.1-2c0-0.97,0.05-1.81,0.13-2.51c0.09-0.7,0.24-1.25,0.44-1.64c0.2-0.39,0.46-0.58,0.77-0.58V675.2z
		 M437.12,675.2v-9.53h18.11l-6.26,5.6v-32.65h10.3v36.57H437.12z M442.64,631.87v-8.87h9.83v8.87H442.64z M455.91,631.87v-8.87
		h9.83v8.87H455.91z M459.27,675.2v-9.53h8.75v9.53H459.27z M468.03,675.2v-9.53c0.27,0,0.48,0.11,0.64,0.33
		c0.16,0.22,0.29,0.53,0.4,0.95c0.11,0.41,0.19,0.91,0.24,1.49c0.04,0.58,0.07,1.24,0.07,1.96c0,0.73-0.02,1.39-0.07,2
		c-0.05,0.61-0.12,1.12-0.24,1.53c-0.11,0.41-0.25,0.73-0.4,0.95C468.51,675.09,468.3,675.2,468.03,675.2z"/>
	<path class="st4" d="M468.03,675.2c-0.22,0-0.43-0.11-0.61-0.33c-0.18-0.22-0.31-0.53-0.4-0.95c-0.09-0.41-0.17-0.92-0.24-1.53
		c-0.07-0.61-0.1-1.27-0.1-2c0-0.97,0.05-1.81,0.13-2.51c0.09-0.7,0.24-1.25,0.44-1.64c0.2-0.39,0.46-0.58,0.77-0.58V675.2z
		 M468.03,675.2v-9.53h7.47v9.53H468.03z M475.5,675.2v-51.12h10.3v51.12H475.5z M485.8,675.2v-9.53h7v9.53H485.8z M492.8,675.2
		v-9.53c0.27,0,0.48,0.11,0.64,0.33c0.16,0.22,0.29,0.53,0.4,0.95c0.11,0.41,0.19,0.91,0.24,1.49c0.04,0.58,0.07,1.24,0.07,1.96
		c0,0.73-0.02,1.39-0.07,2c-0.05,0.61-0.12,1.12-0.24,1.53c-0.11,0.41-0.25,0.73-0.4,0.95C493.28,675.09,493.07,675.2,492.8,675.2z"
		/>
	<path class="st4" d="M492.8,675.2c-0.22,0-0.43-0.11-0.61-0.33c-0.18-0.22-0.31-0.53-0.4-0.95c-0.09-0.41-0.17-0.92-0.24-1.53
		c-0.07-0.61-0.1-1.27-0.1-2c0-0.97,0.05-1.81,0.13-2.51c0.09-0.7,0.24-1.25,0.44-1.64c0.2-0.39,0.46-0.58,0.77-0.58V675.2z
		 M492.8,675.2v-9.53h7.47v9.53H492.8z M500.27,675.2v-51.12h10.3v51.12H500.27z"/>
	<path class="st4" d="M546.39,693.96c-1.71,0-3.48-0.13-5.32-0.4c-1.84-0.27-3.77-0.64-5.79-1.13l1.55-8.87
		c2.2,0.29,4.07,0.51,5.62,0.65c1.55,0.15,2.86,0.22,3.94,0.22c3.05,0,5.25-0.58,6.6-1.75c1.35-1.16,2.02-2.93,2.02-5.31v-30.83
		l2.09,1.6h-7.47c-1.53,0-2.81,0.21-3.84,0.62c-1.03,0.41-1.81,1.26-2.32,2.54c-0.52,1.28-0.77,3.26-0.77,5.93
		c0,2.47,0.22,4.31,0.67,5.53c0.45,1.21,1.19,2,2.22,2.36c1.03,0.36,2.38,0.55,4.04,0.55h5.39v9.53h-5.39
		c-3.77,0-6.95-0.65-9.53-1.96c-2.58-1.31-4.51-3.3-5.79-5.96c-1.28-2.66-1.92-6.01-1.92-10.03c0-4.07,0.64-7.49,1.92-10.25
		c1.28-2.76,3.21-4.85,5.79-6.25c2.58-1.41,5.76-2.11,9.53-2.11h15.69v38.76c0,3.39-0.79,6.34-2.36,8.83
		c-1.57,2.5-3.77,4.41-6.6,5.74C553.53,693.29,550.21,693.96,546.39,693.96z M565.31,675.2v-9.53h7v9.53H565.31z M572.31,675.2
		v-9.53c0.27,0,0.48,0.11,0.64,0.33c0.16,0.22,0.29,0.53,0.4,0.95c0.11,0.41,0.19,0.91,0.24,1.49c0.04,0.58,0.07,1.24,0.07,1.96
		c0,0.73-0.02,1.39-0.07,2c-0.05,0.61-0.12,1.12-0.24,1.53c-0.11,0.41-0.25,0.73-0.4,0.95C572.79,675.09,572.58,675.2,572.31,675.2z
		"/>
	<path class="st4" d="M572.31,675.2c-0.22,0-0.43-0.11-0.61-0.33c-0.18-0.22-0.31-0.53-0.4-0.95c-0.09-0.41-0.17-0.92-0.24-1.53
		c-0.07-0.61-0.1-1.27-0.1-2c0-0.97,0.04-1.81,0.13-2.51c0.09-0.7,0.24-1.25,0.44-1.64c0.2-0.39,0.46-0.58,0.77-0.58V675.2z
		 M572.31,675.2v-9.53h28.68l-3.57,2.98v-11.78c0-2.81-0.81-4.96-2.42-6.44c-1.62-1.48-4.22-2.22-7.81-2.22
		c-0.99,0-2.31,0.07-3.97,0.22c-1.66,0.15-3.48,0.36-5.45,0.65l-0.94-8.73c1.88-0.48,3.8-0.9,5.76-1.24
		c1.95-0.34,3.85-0.51,5.69-0.51c3.77,0,7.11,0.74,10.03,2.22c2.92,1.48,5.22,3.56,6.9,6.25c1.68,2.69,2.52,5.95,2.52,9.78v18.32
		H572.31z M584.84,691.49v-8.87h10.37v8.87H584.84z M607.73,675.2v-9.53h7.07v9.53H607.73z M614.8,675.2v-9.53
		c0.22,0,0.43,0.11,0.61,0.33c0.18,0.22,0.31,0.53,0.4,0.95c0.09,0.41,0.17,0.91,0.24,1.49c0.07,0.58,0.1,1.24,0.1,1.96
		c0,0.73-0.03,1.39-0.1,2c-0.07,0.61-0.15,1.12-0.24,1.53c-0.09,0.41-0.23,0.73-0.4,0.95C615.22,675.09,615.02,675.2,614.8,675.2z"
		/>
	<path class="st4" d="M614.79,675.2c-0.27,0-0.48-0.11-0.64-0.33c-0.16-0.22-0.28-0.53-0.37-0.95c-0.09-0.41-0.17-0.92-0.24-1.53
		c-0.07-0.61-0.1-1.27-0.1-2c0-0.97,0.04-1.81,0.13-2.51c0.09-0.7,0.24-1.25,0.44-1.64c0.2-0.39,0.46-0.58,0.77-0.58V675.2z
		 M614.79,675.2v-9.53h18.11l-6.26,5.6v-32.65h10.3v36.57H614.79z M617.15,691.49v-8.87h9.83v8.87H617.15z M630.41,691.49v-8.87
		h9.83v8.87H630.41z M636.95,675.2v-9.53h8.75v9.53H636.95z M645.7,675.2v-9.53c0.27,0,0.48,0.11,0.64,0.33
		c0.16,0.22,0.29,0.53,0.4,0.95c0.11,0.41,0.19,0.91,0.24,1.49c0.04,0.58,0.07,1.24,0.07,1.96c0,0.73-0.02,1.39-0.07,2
		c-0.04,0.61-0.12,1.12-0.24,1.53c-0.11,0.41-0.25,0.73-0.4,0.95C646.18,675.09,645.97,675.2,645.7,675.2z"/>
	<path class="st4" d="M645.7,675.2c-0.22,0-0.43-0.11-0.61-0.33c-0.18-0.22-0.31-0.53-0.4-0.95c-0.09-0.41-0.17-0.92-0.24-1.53
		c-0.07-0.61-0.1-1.27-0.1-2c0-0.97,0.05-1.81,0.14-2.51c0.09-0.7,0.24-1.25,0.44-1.64c0.2-0.39,0.46-0.58,0.77-0.58V675.2z
		 M645.7,675.2v-9.53h30.57l-2.49,2.33v-21.74l2.09,1.89h-7.47c-1.75,0-3.13,0.25-4.14,0.76c-1.01,0.51-1.73,1.39-2.15,2.65
		c-0.43,1.26-0.64,3.05-0.64,5.38c0,2.57,0.21,4.47,0.64,5.71c0.43,1.24,1.14,2.05,2.15,2.44c1.01,0.39,2.39,0.58,4.14,0.58v8.8
		c-3.77,0-6.95-0.58-9.53-1.74c-2.58-1.16-4.51-3.04-5.79-5.64c-1.28-2.59-1.92-5.97-1.92-10.14c0-3.93,0.64-7.25,1.92-9.96
		c1.28-2.71,3.21-4.79,5.79-6.22c2.58-1.43,5.76-2.14,9.53-2.14h15.69v36.57H645.7z M664.14,631.87v-8.87h10.37v8.87H664.14z
		 M684.07,675.2v-9.53h7v9.53H684.07z M691.08,675.2v-9.53c0.27,0,0.48,0.11,0.64,0.33c0.16,0.22,0.29,0.53,0.4,0.95
		c0.11,0.41,0.19,0.91,0.24,1.49c0.04,0.58,0.07,1.24,0.07,1.96c0,0.73-0.02,1.39-0.07,2c-0.05,0.61-0.12,1.12-0.24,1.53
		c-0.11,0.41-0.25,0.73-0.4,0.95C691.56,675.09,691.34,675.2,691.08,675.2z"/>
	<path class="st4" d="M691.07,675.2c-0.22,0-0.43-0.11-0.61-0.33c-0.18-0.22-0.31-0.53-0.4-0.95c-0.09-0.41-0.17-0.92-0.24-1.53
		c-0.07-0.61-0.1-1.27-0.1-2c0-0.97,0.05-1.81,0.14-2.51c0.09-0.7,0.24-1.25,0.44-1.64c0.2-0.39,0.46-0.58,0.77-0.58V675.2z
		 M691.07,675.2v-9.53h7.47v9.53H691.07z M698.55,675.2v-51.12h10.3v51.12H698.55z"/>
	<path class="st4" d="M716.05,675.2v-9.53h24.24l-6.73,6.25v-10.98c0-3.34-0.31-5.94-0.94-7.78c-0.63-1.84-1.66-3.14-3.1-3.89
		c-1.44-0.75-3.41-1.13-5.92-1.13h-5.45v-9.53h5.45c4.35,0,8.03,0.78,11.04,2.33c3.01,1.55,5.3,3.96,6.87,7.23
		c1.57,3.27,2.36,7.53,2.36,12.76v14.25H716.05z"/>
</g>
</svg>
