<?xml version="1.0" encoding="utf-8"?>
<!-- Generator: Adobe Illustrator 27.3.1, SVG Export Plug-In . SVG Version: 6.00 Build 0)  -->
<svg version="1.1" id="Layer_1" xmlns="http://www.w3.org/2000/svg" xmlns:xlink="http://www.w3.org/1999/xlink" x="0px" y="0px"
	 viewBox="0 0 595.28 841.89" style="enable-background:new 0 0 595.28 841.89;" xml:space="preserve">
<style type="text/css">
	.st0{fill:#2F3271;}
	.st1{fill:#FFFFFF;}
	.st2{fill:#ED1C24;stroke:#ED1C24;stroke-miterlimit:10;}
</style>
<g>
	<path class="st0" d="M145.76,575.55c0-3.79,0-6.53,0-9.28c0-54.54-0.56-109.09,0.13-163.63c1.04-83.41,56.68-156.97,139-174.51
		c63.43-13.52,119.01,4.15,164.59,50.9c28,28.72,43.9,63.63,47.45,103.25c4.51,50.44-9.46,95.65-43.48,133.99
		c-26.92,30.33-60.45,49.15-100.16,56.56c-11.77,2.2-23.94,3.02-35.93,3.09c-54.31,0.32-108.62,0.14-162.93,0.12
		C151.94,576.04,149.45,575.77,145.76,575.55z"/>
	<path class="st1" d="M207.96,513.92c2.16,0.14,3.53,0.32,4.9,0.32c38.28,0.01,76.56,0.08,114.84-0.07
		c5.05-0.02,10.16-0.78,15.15-1.73c63.61-12.21,104.23-73.19,91.13-136c-10.88-52.21-55.04-89.66-108.9-91.18
		c-36.84-1.04-67.14,13.91-90.5,42.04c-17.18,20.69-26.59,44.91-26.87,72.01c-0.37,35.96-0.1,71.92-0.08,107.88
		C207.62,509.23,207.82,511.27,207.96,513.92z"/>
</g>
<g>
	<path class="st2" d="M405.94,345.67c0.14,2.42-0.64,4.58-1.91,6.57c-3.41,5.32-6.85,10.62-10.28,15.93
		c-3.48,5.38-6.95,10.76-10.43,16.14c-4.24,6.56-8.48,13.11-12.72,19.67c-4.87,7.54-9.75,15.08-14.62,22.62
		c-5.68,8.79-11.36,17.59-17.05,26.38c-6.02,9.31-12.05,18.61-18.07,27.92c-2.07,3.2-4.13,6.4-6.19,9.61
		c-1.68,2.62-3.85,4.66-6.88,5.6c-4.05,1.25-7.78,0.6-11.15-1.98c-4.59-3.52-6.19-10.37-2.74-15.83c2.16-3.42,4.37-6.8,6.56-10.2
		c6.4-9.9,12.79-19.8,19.19-29.7c7.7-11.92,15.41-23.83,23.12-35.75c7.8-12.06,15.6-24.12,23.39-36.18
		c5.74-8.88,11.48-17.76,17.22-26.64c1.99-3.08,4.61-5.25,8.29-5.99c5.87-1.17,11.88,2.31,13.7,8.02c0.39,1.22,0.49,2.52,0.73,3.79
		C406.06,345.65,406,345.66,405.94,345.67z"/>
	<path class="st2" d="M338.35,370.88c-0.01,2.94-1.24,5.41-2.8,7.77c-5.48,8.34-10.97,16.67-16.46,25.01
		c-6.16,9.35-12.32,18.69-18.47,28.04c-4.72,7.16-9.43,14.33-14.14,21.49c-2.6,3.95-5.18,7.9-7.77,11.85
		c-1.93,2.94-4.46,5.05-7.97,5.84c-6.73,1.52-13.49-3.17-14.46-10.01c-0.38-2.71,0-5.29,1.44-7.62c1.75-2.84,3.6-5.63,5.43-8.42
		c6.59-10.03,13.19-20.05,19.79-30.08c7.69-11.68,15.37-23.36,23.06-35.03c3.39-5.15,6.76-10.32,10.2-15.45
		c2.04-3.03,4.91-4.87,8.55-5.36c6.01-0.81,11.79,3.21,13.18,9.12C338.15,368.97,338.22,369.94,338.35,370.88z"/>
	<path class="st2" d="M238.6,444.35c-4.26,0.02-9.14-3.73-10.46-9.5c-0.79-3.45,0.06-6.67,2.01-9.6
		c3.88-5.85,7.78-11.69,11.67-17.54c8.77-13.21,17.54-26.42,26.31-39.62c1.91-2.87,3.79-5.76,5.78-8.57
		c1.94-2.74,4.58-4.47,7.94-4.98c6-0.91,11.7,2.69,13.4,8.53c1.07,3.66,0.41,7.07-1.68,10.23c-3.57,5.39-7.15,10.78-10.72,16.18
		c-4.05,6.1-8.09,12.2-12.14,18.3c-5.85,8.81-11.71,17.62-17.58,26.42c-1.38,2.07-2.7,4.2-4.3,6.1
		C246.56,442.98,243.53,444.33,238.6,444.35z"/>
	<path class="st2" d="M339.37,359.4c-6.15,0-11.4-4.89-11.93-11.01c-0.2-2.34,0.19-4.51,1.35-6.51c1.75-3.04,3.59-6.03,5.43-9.02
		c1.1-1.79,2.17-3.62,3.43-5.3c3.31-4.36,9.25-5.78,14.23-3.5c3.83,1.76,6.16,4.74,6.97,8.85c0.63,3.19-0.18,6.12-1.85,8.84
		c-2.43,3.95-4.84,7.91-7.29,11.85c-1.49,2.39-3.54,4.15-6.22,5.05c-1.31,0.44-2.72,0.61-4.08,0.91
		C339.4,359.51,339.38,359.46,339.37,359.4z"/>
</g>
</svg>
