<?xml version="1.0" encoding="utf-8"?>
<!-- Generator: Adobe Illustrator 27.3.1, SVG Export Plug-In . SVG Version: 6.00 Build 0)  -->
<svg version="1.1" id="Layer_1" xmlns="http://www.w3.org/2000/svg" xmlns:xlink="http://www.w3.org/1999/xlink" x="0px" y="0px"
	 viewBox="0 0 1000 1000" style="enable-background:new 0 0 1000 1000;" xml:space="preserve">
<style type="text/css">
	.st0{fill:#2E3271;}
	.st1{fill:#FFFFFF;}
	.st2{fill:#EC1C24;stroke:#ED1C24;stroke-miterlimit:10;}
	.st3{fill:#ED1C24;}
	.st4{fill:#303171;stroke:#303171;stroke-miterlimit:10;}
</style>
<g>
	<g>
		<path class="st0" d="M647.96,597.29c0-3.01,0-5.19,0-7.37c0-43.35-0.44-86.71,0.1-130.05c0.83-66.29,45.05-124.76,110.48-138.7
			c50.42-10.74,94.59,3.3,130.81,40.45c22.26,22.83,34.89,50.57,37.71,82.06c3.58,40.09-7.52,76.02-34.56,106.49
			c-21.39,24.1-48.04,39.06-79.6,44.95c-9.35,1.75-19.03,2.4-28.56,2.45c-43.16,0.25-86.33,0.11-129.5,0.1
			C652.87,597.68,650.9,597.47,647.96,597.29z"/>
		<path class="st1" d="M697.4,548.31c1.71,0.12,2.8,0.25,3.89,0.25c30.42,0.01,60.85,0.06,91.27-0.05
			c4.02-0.02,8.08-0.62,12.04-1.38c50.56-9.7,82.84-58.17,72.43-108.09c-8.65-41.49-43.74-71.26-86.55-72.47
			c-29.28-0.83-53.36,11.05-71.93,33.41c-13.66,16.44-21.13,35.69-21.35,57.23c-0.29,28.58-0.08,57.16-0.07,85.74
			C697.13,544.58,697.29,546.21,697.4,548.31z"/>
	</g>
	<g>
		<path class="st2" d="M854.75,414.59c0.11,1.92-0.51,3.64-1.52,5.22c-2.71,4.23-5.45,8.44-8.17,12.66
			c-2.76,4.28-5.52,8.55-8.29,12.83c-3.37,5.21-6.74,10.42-10.11,15.64c-3.87,5.99-7.75,11.99-11.62,17.98
			c-4.52,6.99-9.03,13.98-13.55,20.96c-4.78,7.4-9.58,14.79-14.36,22.19c-1.64,2.54-3.28,5.09-4.92,7.63
			c-1.34,2.08-3.06,3.7-5.47,4.45c-3.22,1-6.18,0.47-8.86-1.58c-3.65-2.8-4.92-8.24-2.18-12.58c1.72-2.72,3.47-5.41,5.22-8.11
			c5.08-7.87,10.17-15.74,15.25-23.61c6.12-9.47,12.25-18.94,18.37-28.41c6.2-9.59,12.4-19.17,18.59-28.76
			c4.56-7.06,9.13-14.12,13.69-21.18c1.58-2.45,3.67-4.17,6.59-4.76c4.67-0.93,9.45,1.83,10.89,6.37c0.31,0.97,0.39,2.01,0.58,3.01
			C854.85,414.57,854.8,414.58,854.75,414.59z"/>
		<path class="st2" d="M801.03,434.63c-0.01,2.33-0.99,4.3-2.22,6.18c-4.36,6.63-8.72,13.25-13.08,19.88
			c-4.89,7.43-9.79,14.86-14.68,22.29c-3.75,5.69-7.49,11.39-11.24,17.08c-2.06,3.14-4.12,6.28-6.18,9.42
			c-1.53,2.34-3.54,4.02-6.34,4.64c-5.35,1.2-10.72-2.52-11.49-7.95c-0.3-2.16,0-4.2,1.14-6.05c1.39-2.26,2.86-4.47,4.32-6.69
			c5.24-7.97,10.48-15.94,15.73-23.91c6.11-9.28,12.22-18.56,18.33-27.84c2.7-4.1,5.38-8.21,8.11-12.28c1.62-2.41,3.9-3.87,6.8-4.26
			c4.78-0.64,9.37,2.55,10.48,7.25C800.87,433.11,800.92,433.88,801.03,434.63z"/>
		<path class="st2" d="M721.75,493.02c-3.39,0.02-7.27-2.96-8.32-7.55c-0.63-2.75,0.05-5.3,1.6-7.63c3.09-4.65,6.19-9.29,9.28-13.94
			c6.97-10.5,13.94-21,20.91-31.49c1.52-2.28,3.01-4.58,4.59-6.81c1.54-2.18,3.64-3.55,6.31-3.96c4.77-0.73,9.3,2.14,10.65,6.78
			c0.85,2.91,0.33,5.62-1.34,8.13c-2.84,4.29-5.68,8.57-8.52,12.86c-3.22,4.85-6.43,9.7-9.65,14.54c-4.65,7-9.3,14-13.97,20.99
			c-1.1,1.64-2.15,3.34-3.42,4.85C728.07,491.93,725.67,493,721.75,493.02z"/>
		<path class="st2" d="M802.84,424.5c-4.89,0-9.06-3.89-9.48-8.75c-0.16-1.86,0.15-3.59,1.07-5.18c1.39-2.42,2.85-4.79,4.31-7.17
			c0.88-1.42,1.72-2.88,2.73-4.21c2.63-3.46,7.35-4.59,11.31-2.78c3.05,1.4,4.89,3.76,5.54,7.04c0.5,2.53-0.14,4.86-1.47,7.03
			c-1.93,3.14-3.84,6.29-5.79,9.42c-1.18,1.9-2.81,3.3-4.94,4.02c-1.04,0.35-2.16,0.49-3.24,0.72
			C802.86,424.59,802.85,424.54,802.84,424.5z"/>
	</g>
</g>
<g>
	<path class="st3" d="M135.4,487.3c4.34,2.28,7.37,5.86,9.08,10.76c1.71,4.9,2.57,11.69,2.57,20.37c0,9.03-0.84,16.17-2.52,21.42
		c-1.68,5.25-4.71,9.13-9.08,11.66c-4.38,2.52-10.62,3.78-18.74,3.78H92.67v-71.4h24.04C124.83,483.89,131.06,485.03,135.4,487.3z
		 M126.84,539.96c2.21-1.82,3.64-4.43,4.31-7.82c0.66-3.39,1-8.24,1-14.54c0-5.6-0.35-9.83-1.05-12.71
		c-0.7-2.87-2.14-4.99-4.31-6.35c-2.17-1.37-5.53-2.05-10.08-2.05h-9.56v46.2h9.56C121.26,542.69,124.64,541.78,126.84,539.96z"/>
	<path class="st3" d="M179.04,550.36c-3.64-4.13-5.46-10.82-5.46-20.06c0-9.66,1.91-16.87,5.72-21.63c3.81-4.76,9.75-7.14,17.8-7.14
		c7.42,0,13.04,1.98,16.85,5.93c3.81,3.96,5.72,9.89,5.72,17.8l-1.05,9.76h-30.87c0.14,2.45,0.58,4.32,1.31,5.62
		c0.73,1.3,1.92,2.21,3.57,2.73c1.64,0.52,3.94,0.79,6.88,0.79c2.31,0,5.07-0.07,8.3-0.21c3.22-0.14,5.56-0.28,7.03-0.42l2.94-0.32
		l0.21,10.4c-7.91,1.96-14.98,2.94-21.21,2.94C188.6,556.55,182.68,554.49,179.04,550.36z M205.82,524.32c0-4.2-0.65-7.12-1.94-8.77
		c-1.3-1.64-3.59-2.47-6.88-2.47c-3.36,0-5.74,0.86-7.14,2.57c-1.4,1.72-2.14,4.6-2.21,8.66H205.82z"/>
	<path class="st3" d="M248.2,481.79h14.07v73.5H248.2V481.79z"/>
	<path class="st3" d="M293.73,481.9h14.07v14.17h-14.07V481.9z M293.73,502.79h14.07v52.5h-14.07V502.79z"/>
	<path class="st3" d="M333.7,502.79h14.7l8.4,40.53h2.94l8.82-40.53h14.28l-12.6,52.5H346.3L333.7,502.79z"/>
	<path class="st3" d="M411.57,550.36c-3.64-4.13-5.46-10.82-5.46-20.06c0-9.66,1.91-16.87,5.72-21.63c3.81-4.76,9.75-7.14,17.8-7.14
		c7.42,0,13.04,1.98,16.85,5.93c3.81,3.96,5.72,9.89,5.72,17.8l-1.05,9.76h-30.87c0.14,2.45,0.58,4.32,1.31,5.62
		c0.73,1.3,1.92,2.21,3.57,2.73c1.64,0.52,3.94,0.79,6.88,0.79c2.31,0,5.07-0.07,8.3-0.21c3.22-0.14,5.56-0.28,7.03-0.42l2.94-0.32
		l0.21,10.4c-7.91,1.96-14.98,2.94-21.21,2.94C421.12,556.55,415.21,554.49,411.57,550.36z M438.34,524.32
		c0-4.2-0.65-7.12-1.94-8.77c-1.3-1.64-3.59-2.47-6.88-2.47c-3.36,0-5.74,0.86-7.14,2.57c-1.4,1.72-2.14,4.6-2.21,8.66H438.34z"/>
	<path class="st3" d="M490.12,552.67c-4.24-2.59-7.26-6.58-9.08-11.97c-1.82-5.39-2.73-12.53-2.73-21.42
		c0-8.75,0.94-15.8,2.83-21.16s4.92-9.27,9.08-11.76c4.16-2.48,9.75-3.73,16.75-3.73c6.51,0,13.54,0.74,21.1,2.21l3.78,0.73
		l-0.42,11.24c-8.12-0.91-14.98-1.37-20.58-1.37c-5.53,0-9.55,0.93-12.08,2.78c-2.52,1.86-4.08,4.38-4.67,7.56
		c-0.6,3.19-0.89,7.93-0.89,14.23c0,6.23,0.42,11.02,1.26,14.38c0.84,3.36,2.36,5.79,4.57,7.3c2.21,1.51,5.48,2.26,9.82,2.26
		c4.13,0,7.04-0.14,8.71-0.42v-13.86h-6.51v-12.6h20.79v37.07c-10.22,1.61-18.34,2.41-24.36,2.41
		C500.15,556.55,494.36,555.26,490.12,552.67z"/>
	<path class="st3" d="M565.47,549.36c-4.1-4.79-6.14-11.6-6.14-20.42c0-8.75,2.05-15.5,6.14-20.27c4.09-4.76,10.1-7.14,18.01-7.14
		c7.91,0,13.91,2.38,18.01,7.14c4.09,4.76,6.14,11.52,6.14,20.27c0,8.82-2.05,15.63-6.14,20.42c-4.09,4.8-10.1,7.19-18.01,7.19
		C575.57,556.55,569.57,554.15,565.47,549.36z M590.94,540.91c1.61-2.45,2.42-6.44,2.42-11.97c0-5.53-0.81-9.48-2.42-11.87
		c-1.61-2.38-4.09-3.57-7.46-3.57c-3.36,0-5.85,1.19-7.46,3.57c-1.61,2.38-2.42,6.34-2.42,11.87c0,5.53,0.8,9.52,2.42,11.97
		c1.61,2.45,4.1,3.67,7.46,3.67C586.84,544.58,589.32,543.36,590.94,540.91z"/>
</g>
<g>
	<path class="st4" d="M111.14,451.31c-4.27,0-8.09-0.84-11.45-2.53c-3.36-1.69-6-4-7.92-6.96c-1.92-2.96-2.88-6.33-2.88-10.11
		c0-1.04,0.07-2.4,0.22-4.08c0.14-1.68,0.33-3.56,0.58-5.64c0.24-2.07,0.52-4.21,0.83-6.42c0.31-2.2,0.61-4.34,0.9-6.42l10.87,1.56
		c-0.48,3.47-0.9,6.62-1.26,9.45c-0.36,2.83-0.64,5.21-0.83,7.15c-0.19,1.94-0.29,3.38-0.29,4.32c0,1.92,0.43,3.59,1.3,5.02
		c0.86,1.42,2.14,2.53,3.82,3.3c1.68,0.78,3.72,1.17,6.12,1.17c2.54,0,4.56-0.4,6.05-1.21c1.49-0.8,2.54-1.87,3.17-3.19
		c0.62-1.32,0.94-2.81,0.94-4.47v-54.9h11.02v54.9c0,3.84-0.91,7.18-2.74,10.03c-1.82,2.85-4.33,5.07-7.52,6.65
		C118.86,450.52,115.22,451.31,111.14,451.31z M132.31,432.03v-10.19h7.56v10.19H132.31z M139.87,432.03v-10.19
		c0.24,0,0.46,0.12,0.65,0.35c0.19,0.23,0.34,0.57,0.43,1.01c0.1,0.44,0.18,0.97,0.25,1.59c0.07,0.62,0.11,1.32,0.11,2.1
		c0,0.78-0.04,1.49-0.11,2.14c-0.07,0.65-0.16,1.19-0.25,1.63c-0.1,0.44-0.24,0.78-0.43,1.01
		C140.33,431.91,140.11,432.03,139.87,432.03z"/>
	<path class="st4" d="M139.87,432.03c-0.29,0-0.52-0.12-0.68-0.35c-0.17-0.23-0.3-0.57-0.4-1.01c-0.1-0.44-0.18-0.98-0.25-1.63
		c-0.07-0.65-0.11-1.36-0.11-2.14c0-1.04,0.05-1.93,0.14-2.68c0.1-0.75,0.25-1.33,0.47-1.75c0.22-0.41,0.49-0.62,0.83-0.62V432.03z
		 M139.87,432.03v-10.19h19.37l-6.7,5.99v-34.91h11.02v39.11H139.87z M142.39,449.44v-9.49h10.51v9.49H142.39z M156.58,449.44v-9.49
		h10.51v9.49H156.58z M163.56,432.03v-10.19h9.36v10.19H163.56z M172.92,432.03v-10.19c0.29,0,0.52,0.12,0.68,0.35
		c0.17,0.23,0.31,0.57,0.43,1.01c0.12,0.44,0.2,0.97,0.25,1.59c0.05,0.62,0.07,1.32,0.07,2.1c0,0.78-0.02,1.49-0.07,2.14
		c-0.05,0.65-0.13,1.19-0.25,1.63c-0.12,0.44-0.26,0.78-0.43,1.01C173.44,431.91,173.21,432.03,172.92,432.03z"/>
	<path class="st4" d="M172.92,432.03c-0.24,0-0.46-0.12-0.65-0.35c-0.19-0.23-0.34-0.57-0.43-1.01c-0.1-0.44-0.18-0.98-0.25-1.63
		c-0.07-0.65-0.11-1.36-0.11-2.14c0-1.04,0.05-1.93,0.14-2.68c0.1-0.75,0.25-1.33,0.47-1.75c0.22-0.41,0.49-0.62,0.83-0.62V432.03z
		 M172.92,432.03v-10.19h54.86l-9.14,8.48v-15.71c0-2.8-0.35-5.03-1.04-6.69c-0.7-1.66-1.67-2.88-2.92-3.65
		c-1.25-0.78-2.74-1.17-4.46-1.17c-2.06,0-4.02,0.47-5.87,1.4c-1.85,0.93-3.58,2.13-5.18,3.58c-1.61,1.45-3.1,3.01-4.46,4.67
		c-1.37,1.66-2.57,3.24-3.6,4.74c-1.03,1.5-1.91,2.7-2.63,3.58l-2.23-8.09c2.06-2.8,3.89-5.27,5.47-7.43
		c1.58-2.15,3.07-4.02,4.46-5.6c1.39-1.58,2.82-2.89,4.28-3.93c1.46-1.04,3.08-1.81,4.86-2.33c1.78-0.52,3.86-0.78,6.26-0.78
		c3.12,0,5.82,0.57,8.1,1.71c2.28,1.14,4.15,2.72,5.62,4.74c1.46,2.02,2.56,4.34,3.28,6.96c0.72,2.62,1.08,5.38,1.08,8.28v17.42
		H172.92z M181.63,421.84v-28.93h11.02v28.93H181.63z"/>
	<path class="st4" d="M252.34,452.09c-1.82,0-3.72-0.14-5.69-0.43c-1.97-0.29-4.03-0.69-6.19-1.21l1.66-9.49
		c2.35,0.31,4.36,0.54,6.01,0.7c1.66,0.16,3.06,0.23,4.21,0.23c3.26,0,5.62-0.62,7.06-1.87s2.16-3.14,2.16-5.68v-32.97l2.23,1.71
		h-7.99c-1.63,0-3,0.22-4.1,0.66c-1.1,0.44-1.93,1.35-2.48,2.72c-0.55,1.37-0.83,3.49-0.83,6.34c0,2.64,0.24,4.61,0.72,5.91
		c0.48,1.3,1.27,2.14,2.38,2.53c1.1,0.39,2.54,0.58,4.32,0.58h5.76v10.19h-5.76c-4.03,0-7.43-0.7-10.19-2.1
		c-2.76-1.4-4.82-3.52-6.19-6.38c-1.37-2.85-2.05-6.43-2.05-10.73c0-4.35,0.68-8.01,2.05-10.96c1.37-2.96,3.43-5.18,6.19-6.69
		c2.76-1.5,6.16-2.25,10.19-2.25h16.78v41.45c0,3.63-0.84,6.78-2.52,9.45c-1.68,2.67-4.03,4.72-7.06,6.14
		C259.97,451.37,256.42,452.09,252.34,452.09z M272.57,432.03v-10.19h7.49v10.19H272.57z M280.06,432.03v-10.19
		c0.29,0,0.52,0.12,0.68,0.35c0.17,0.23,0.31,0.57,0.43,1.01c0.12,0.44,0.2,0.97,0.25,1.59c0.05,0.62,0.07,1.32,0.07,2.1
		c0,0.78-0.02,1.49-0.07,2.14c-0.05,0.65-0.13,1.19-0.25,1.63c-0.12,0.44-0.26,0.78-0.43,1.01
		C280.57,431.91,280.34,432.03,280.06,432.03z"/>
	<path class="st4" d="M280.06,432.03c-0.29,0-0.52-0.12-0.68-0.35c-0.17-0.23-0.3-0.57-0.4-1.01c-0.1-0.44-0.18-0.98-0.25-1.63
		c-0.07-0.65-0.11-1.36-0.11-2.14c0-1.04,0.05-1.93,0.14-2.68c0.1-0.75,0.25-1.33,0.47-1.75c0.22-0.41,0.49-0.62,0.83-0.62V432.03z
		 M280.06,432.03v-10.19h19.37l-6.7,5.99v-34.91h11.02v39.11H280.06z M285.96,385.68v-9.49h10.51v9.49H285.96z M300.14,385.68v-9.49
		h10.51v9.49H300.14z M303.74,432.03v-10.19h9.36v10.19H303.74z M313.1,432.03v-10.19c0.29,0,0.52,0.12,0.68,0.35
		c0.17,0.23,0.31,0.57,0.43,1.01c0.12,0.44,0.2,0.97,0.25,1.59c0.05,0.62,0.07,1.32,0.07,2.1c0,0.78-0.02,1.49-0.07,2.14
		c-0.05,0.65-0.13,1.19-0.25,1.63c-0.12,0.44-0.26,0.78-0.43,1.01C313.62,431.91,313.39,432.03,313.1,432.03z"/>
	<path class="st4" d="M313.1,432.03c-0.24,0-0.46-0.12-0.65-0.35c-0.19-0.23-0.34-0.57-0.43-1.01c-0.1-0.44-0.18-0.98-0.25-1.63
		c-0.07-0.65-0.11-1.36-0.11-2.14c0-1.04,0.05-1.93,0.14-2.68c0.1-0.75,0.25-1.33,0.47-1.75c0.22-0.41,0.49-0.62,0.83-0.62V432.03z
		 M313.1,432.03v-10.19h7.99v10.19H313.1z M321.1,432.03v-54.67h11.02v54.67H321.1z M332.11,432.03v-10.19h7.49v10.19H332.11z
		 M339.6,432.03v-10.19c0.29,0,0.52,0.12,0.68,0.35c0.17,0.23,0.31,0.57,0.43,1.01c0.12,0.44,0.2,0.97,0.25,1.59
		c0.05,0.62,0.07,1.32,0.07,2.1c0,0.78-0.02,1.49-0.07,2.14c-0.05,0.65-0.13,1.19-0.25,1.63c-0.12,0.44-0.26,0.78-0.43,1.01
		C340.12,431.91,339.89,432.03,339.6,432.03z"/>
	<path class="st4" d="M339.6,432.03c-0.24,0-0.46-0.12-0.65-0.35c-0.19-0.23-0.34-0.57-0.43-1.01c-0.1-0.44-0.18-0.98-0.25-1.63
		c-0.07-0.65-0.11-1.36-0.11-2.14c0-1.04,0.05-1.93,0.14-2.68c0.1-0.75,0.25-1.33,0.47-1.75c0.22-0.41,0.49-0.62,0.83-0.62V432.03z
		 M339.6,432.03v-10.19h7.99v10.19H339.6z M347.59,432.03v-54.67h11.02v54.67H347.59z"/>
	<path class="st4" d="M396.91,452.09c-1.82,0-3.72-0.14-5.69-0.43c-1.97-0.29-4.03-0.69-6.19-1.21l1.66-9.49
		c2.35,0.31,4.36,0.54,6.01,0.7c1.66,0.16,3.06,0.23,4.21,0.23c3.26,0,5.62-0.62,7.06-1.87s2.16-3.14,2.16-5.68v-32.97l2.23,1.71
		h-7.99c-1.63,0-3,0.22-4.1,0.66c-1.1,0.44-1.93,1.35-2.48,2.72c-0.55,1.37-0.83,3.49-0.83,6.34c0,2.64,0.24,4.61,0.72,5.91
		c0.48,1.3,1.27,2.14,2.38,2.53c1.1,0.39,2.54,0.58,4.32,0.58h5.76v10.19h-5.76c-4.03,0-7.43-0.7-10.19-2.1
		c-2.76-1.4-4.82-3.52-6.19-6.38c-1.37-2.85-2.05-6.43-2.05-10.73c0-4.35,0.68-8.01,2.05-10.96c1.37-2.96,3.43-5.18,6.19-6.69
		c2.76-1.5,6.16-2.25,10.19-2.25h16.78v41.45c0,3.63-0.84,6.78-2.52,9.45c-1.68,2.67-4.03,4.72-7.06,6.14
		C404.54,451.37,400.99,452.09,396.91,452.09z M417.14,432.03v-10.19h7.49v10.19H417.14z M424.63,432.03v-10.19
		c0.29,0,0.52,0.12,0.68,0.35c0.17,0.23,0.31,0.57,0.43,1.01c0.12,0.44,0.2,0.97,0.25,1.59c0.05,0.62,0.07,1.32,0.07,2.1
		c0,0.78-0.02,1.49-0.07,2.14c-0.05,0.65-0.13,1.19-0.25,1.63c-0.12,0.44-0.26,0.78-0.43,1.01
		C425.15,431.91,424.92,432.03,424.63,432.03z"/>
	<path class="st4" d="M424.63,432.03c-0.24,0-0.46-0.12-0.65-0.35c-0.19-0.23-0.34-0.57-0.43-1.01c-0.1-0.44-0.18-0.98-0.25-1.63
		c-0.07-0.65-0.11-1.36-0.11-2.14c0-1.04,0.05-1.93,0.14-2.68c0.1-0.75,0.25-1.33,0.47-1.75c0.22-0.41,0.49-0.62,0.83-0.62V432.03z
		 M424.63,432.03v-10.19h30.67l-3.82,3.19v-12.6c0-3.01-0.86-5.3-2.59-6.88c-1.73-1.58-4.51-2.37-8.35-2.37
		c-1.06,0-2.47,0.08-4.25,0.23c-1.78,0.16-3.72,0.39-5.83,0.7l-1.01-9.33c2.02-0.52,4.07-0.96,6.16-1.32
		c2.09-0.36,4.12-0.54,6.08-0.54c4.03,0,7.61,0.79,10.73,2.37c3.12,1.58,5.58,3.81,7.38,6.69c1.8,2.88,2.7,6.36,2.7,10.46v19.6
		H424.63z M438.02,449.44v-9.49h11.09v9.49H438.02z M462.5,432.03v-10.19h7.56v10.19H462.5z M470.06,432.03v-10.19
		c0.24,0,0.46,0.12,0.65,0.35c0.19,0.23,0.33,0.57,0.43,1.01c0.1,0.44,0.18,0.97,0.25,1.59c0.07,0.62,0.11,1.32,0.11,2.1
		c0,0.78-0.04,1.49-0.11,2.14c-0.07,0.65-0.16,1.19-0.25,1.63c-0.1,0.44-0.24,0.78-0.43,1.01
		C470.52,431.91,470.3,432.03,470.06,432.03z"/>
	<path class="st4" d="M470.06,432.03c-0.29,0-0.52-0.12-0.68-0.35c-0.17-0.23-0.3-0.57-0.4-1.01c-0.1-0.44-0.18-0.98-0.25-1.63
		c-0.07-0.65-0.11-1.36-0.11-2.14c0-1.04,0.05-1.93,0.14-2.68c0.1-0.75,0.25-1.33,0.47-1.75c0.22-0.41,0.49-0.62,0.83-0.62V432.03z
		 M470.06,432.03v-10.19h19.37l-6.7,5.99v-34.91h11.02v39.11H470.06z M472.58,449.44v-9.49h10.51v9.49H472.58z M486.77,449.44v-9.49
		h10.51v9.49H486.77z M493.75,432.03v-10.19h9.36v10.19H493.75z M503.11,432.03v-10.19c0.29,0,0.52,0.12,0.68,0.35
		c0.17,0.23,0.31,0.57,0.43,1.01c0.12,0.44,0.2,0.97,0.25,1.59c0.05,0.62,0.07,1.32,0.07,2.1c0,0.78-0.02,1.49-0.07,2.14
		c-0.05,0.65-0.13,1.19-0.25,1.63c-0.12,0.44-0.26,0.78-0.43,1.01C503.63,431.91,503.4,432.03,503.11,432.03z"/>
	<path class="st4" d="M503.11,432.03c-0.24,0-0.46-0.12-0.65-0.35c-0.19-0.23-0.34-0.57-0.43-1.01c-0.1-0.44-0.18-0.98-0.25-1.63
		c-0.07-0.65-0.11-1.36-0.11-2.14c0-1.04,0.05-1.93,0.14-2.68c0.1-0.75,0.25-1.33,0.47-1.75c0.22-0.41,0.49-0.62,0.83-0.62V432.03z
		 M503.11,432.03v-10.19h32.69l-2.66,2.49v-23.25l2.23,2.02h-7.99c-1.87,0-3.35,0.27-4.43,0.82s-1.85,1.49-2.3,2.84
		c-0.46,1.35-0.68,3.27-0.68,5.75c0,2.75,0.23,4.78,0.68,6.1c0.46,1.32,1.22,2.19,2.3,2.6c1.08,0.42,2.56,0.62,4.43,0.62v9.41
		c-4.03,0-7.43-0.62-10.19-1.87c-2.76-1.24-4.82-3.25-6.19-6.03c-1.37-2.77-2.05-6.39-2.05-10.85c0-4.2,0.68-7.75,2.05-10.65
		c1.37-2.9,3.43-5.12,6.19-6.65c2.76-1.53,6.16-2.29,10.19-2.29h16.78v39.11H503.11z M522.84,385.68v-9.49h11.09v9.49H522.84z
		 M544.15,432.03v-10.19h7.49v10.19H544.15z M551.64,432.03v-10.19c0.29,0,0.51,0.12,0.68,0.35c0.17,0.23,0.31,0.57,0.43,1.01
		c0.12,0.44,0.2,0.97,0.25,1.59c0.05,0.62,0.07,1.32,0.07,2.1c0,0.78-0.03,1.49-0.07,2.14c-0.05,0.65-0.13,1.19-0.25,1.63
		c-0.12,0.44-0.26,0.78-0.43,1.01C552.16,431.91,551.93,432.03,551.64,432.03z"/>
	<path class="st4" d="M551.64,432.03c-0.24,0-0.46-0.12-0.65-0.35c-0.19-0.23-0.33-0.57-0.43-1.01c-0.1-0.44-0.18-0.98-0.25-1.63
		c-0.07-0.65-0.11-1.36-0.11-2.14c0-1.04,0.05-1.93,0.14-2.68c0.1-0.75,0.25-1.33,0.47-1.75c0.22-0.41,0.49-0.62,0.83-0.62V432.03z
		 M551.64,432.03v-10.19h7.99v10.19H551.64z M559.63,432.03v-54.67h11.02v54.67H559.63z"/>
	<path class="st4" d="M578.35,432.03v-10.19h25.92l-7.2,6.69v-11.74c0-3.58-0.34-6.35-1.01-8.32c-0.67-1.97-1.78-3.36-3.31-4.16
		c-1.54-0.8-3.65-1.21-6.34-1.21h-5.83v-10.19h5.83c4.66,0,8.59,0.83,11.81,2.49c3.21,1.66,5.66,4.24,7.34,7.74
		c1.68,3.5,2.52,8.05,2.52,13.65v15.24H578.35z"/>
</g>
</svg>
